<svg id="Capa_1" data-name="Capa 1" xmlns="http://www.w3.org/2000/svg" viewBox="0 0 368.71 223.22"><defs><style>.cls-1{fill:#fff;stroke:#000;stroke-miterlimit:10;}.cls-2{font-size:60px;}.cls-2,.cls-4{font-family:Impact, Impact;}.cls-3{letter-spacing:-0.02em;}.cls-4{font-size:33.28px;letter-spacing:-0.04em;}.cls-4,.cls-6{fill:gray;}.cls-5{letter-spacing:0em;}</style></defs><title>LOGO V3</title><path class="cls-1" d="M170.18,106.61" transform="translate(-14.42 -19.81)"/><path d="M228.32,88.36c-13.34-1.53-23.88-6.25-28.44-17.75-.89-2.25-2.23-3-4.87-3-14-.27-27,3.62-40.13,7.19a156.47,156.47,0,0,1-18,4.31,27.75,27.75,0,0,1-11.48-.63c-3.73-1-5.72-3.68-5.1-7a16.26,16.26,0,0,1,5.48-9.39c6-5.34,12-10.69,18.87-15.21Q176.57,26,216.1,21.19a178.11,178.11,0,0,1,78.39,7.67,151.81,151.81,0,0,1,38.53,19,124,124,0,0,1,29.86,28.27c9.89,13.34,16.79,27.75,18.61,43.74.52,4.61,1.93,9.25,1.58,13.8-.91,11.86-2.22,23.73-6.76,35.08A104,104,0,0,1,360,196.67a123.75,123.75,0,0,1-26.42,24.07A139,139,0,0,1,297.82,238c-23.6,7.46-46.86,6.9-69.1-3.66a51,51,0,0,1-22.3-19.94c-7.38-12.21-8.37-24.69-3.31-37.38,5.72-14.33,17.7-23.85,33.8-29.3a75.24,75.24,0,0,1,41.88-2.27c9.44,2.2,18.29,5.25,22.7,13.87a14.39,14.39,0,0,0,4.05,4.2,6.77,6.77,0,0,0,8.47.06c4.75-4,8.63-8.68,12.59-13.26,1.6-1.86,1.23-3.57-1.24-4.91-4.48-2.44-9.55-3.75-14.22-5.81-4.86-2.16-7.48-5.93-5.94-9.25,1.43-3.07,6.57-4.62,11.38-3.47a15.35,15.35,0,0,1,6.5,3.69c8,6.85,16.89,6.33,23.59-1.38a46.43,46.43,0,0,1,4.32-4.45c4-3.55,4-6.28.25-10.55a191.7,191.7,0,0,0-21.1-21.38C322.06,86,313.8,79.32,304.47,74c-8-4.54-17.6-6-26.92-7.55-5-.86-10.08-1.46-15.16-2a3.84,3.84,0,0,1-3.53-2.4c-5-10.73-23.73-13.4-34.4-6.73-10.33,6.47-9.71,21-1.84,27.62C224.65,84.62,226.43,86.54,228.32,88.36Z" transform="translate(-14.42 -19.81)"/><path d="M256.29,81.29a75.16,75.16,0,0,1,33.86-1.87c1.24.23,2.45.64,2.74,1.92a21.06,21.06,0,0,0,5.92,10.54C285.23,86.25,270.6,84.45,256.29,81.29Z" transform="translate(-14.42 -19.81)"/><text class="cls-2" transform="translate(0 116.38) scale(1.62 1)"><tspan class="cls-3">P</tspan><tspan x="28.62" y="0">ARDO</tspan></text><text class="cls-4" transform="translate(2.27 146.29) scale(0.56 1)">T<tspan class="cls-5" x="13.94" y="0">ecnología y Soluciones</tspan></text><rect class="cls-6" x="6.26" y="151.29" width="20" height="2"/><rect class="cls-6" x="161.26" y="152.29" width="20" height="2"/></svg>