<svg width="369" height="224" viewBox="0 0 369 224" fill="none" xmlns="http://www.w3.org/2000/svg">
<g clip-path="url(#clip0_1_9)">
<path d="M213.9 68.55C200.56 67.02 190.02 62.3 185.46 50.8C184.57 48.55 183.23 47.8 180.59 47.8C166.59 47.53 153.59 51.42 140.46 54.99C134.55 56.7806 128.54 58.2198 122.46 59.3C118.631 59.8937 114.721 59.6791 110.98 58.67C107.25 57.67 105.26 54.99 105.88 51.67C106.575 48.0039 108.51 44.6885 111.36 42.28C117.36 36.94 123.36 31.59 130.23 27.07C151.51 13.15 175.327 4.58667 201.68 1.38C228.055 -1.94541 254.84 0.67533 280.07 9.05C293.749 13.5249 306.722 19.9223 318.6 28.05C330.057 35.7459 340.149 45.3005 348.46 56.32C358.35 69.66 365.25 84.07 367.07 100.06C367.59 104.67 369 109.31 368.65 113.86C367.74 125.72 366.43 137.59 361.89 148.94C357.942 159.04 352.439 168.461 345.58 176.86C337.984 186.119 329.085 194.227 319.16 200.93C308.127 208.365 296.085 214.178 283.4 218.19C259.8 225.65 236.54 225.09 214.3 214.53C205.041 210.262 197.273 203.316 192 194.59C184.62 182.38 183.63 169.9 188.69 157.21C194.41 142.88 206.39 133.36 222.49 127.91C235.953 123.199 250.477 122.412 264.37 125.64C273.81 127.84 282.66 130.89 287.07 139.51C288.119 141.172 289.497 142.601 291.12 143.71C292.315 144.682 293.805 145.217 295.344 145.228C296.884 145.239 298.382 144.725 299.59 143.77C304.34 139.77 308.22 135.09 312.18 130.51C313.78 128.65 313.41 126.94 310.94 125.6C306.46 123.16 301.39 121.85 296.72 119.79C291.86 117.63 289.24 113.86 290.78 110.54C292.21 107.47 297.35 105.92 302.16 107.07C304.598 107.746 306.83 109.013 308.66 110.76C316.66 117.61 325.55 117.09 332.25 109.38C333.589 107.802 335.032 106.315 336.57 104.93C340.57 101.38 340.57 98.65 336.82 94.38C330.357 86.7124 323.302 79.5638 315.72 73C307.64 66.19 299.38 59.51 290.05 54.19C282.05 49.65 272.45 48.19 263.13 46.64C258.13 45.78 253.05 45.18 247.97 44.64C247.21 44.6341 246.469 44.4029 245.841 43.9757C245.212 43.5485 244.725 42.9444 244.44 42.24C239.44 31.51 220.71 28.84 210.04 35.51C199.71 41.98 200.33 56.51 208.2 63.13C210.23 64.81 212.01 66.73 213.9 68.55Z" fill="white"/>
<path d="M241.87 61.48C252.867 58.2853 264.448 57.6457 275.73 59.61C276.97 59.84 278.18 60.25 278.47 61.53C279.371 65.5464 281.429 69.2107 284.39 72.07C270.81 66.44 256.18 64.64 241.87 61.48Z" fill="white"/>
<path d="M3.13226 73.0094H18.9427C23.2185 73.0094 26.4999 73.345 28.787 74.0162C31.0989 74.6874 32.8266 75.6569 33.9701 76.9247C35.1385 78.1925 35.9216 79.7338 36.3193 81.5485C36.7419 83.3384 36.9532 86.1226 36.9532 89.9012V95.159C36.9532 99.0121 36.5555 101.821 35.76 103.586C34.9645 105.351 33.4978 106.706 31.3599 107.651C29.2469 108.595 26.4751 109.068 23.0445 109.068H18.8309V133.38H3.13226V73.0094ZM18.8309 83.3384V98.7014C19.2783 98.7262 19.6636 98.7387 19.9868 98.7387C21.4286 98.7387 22.423 98.3906 22.9699 97.6946C23.5417 96.9737 23.8276 95.4946 23.8276 93.2572V88.2978C23.8276 86.2345 23.5044 84.8921 22.8581 84.2706C22.2117 83.6491 20.8693 83.3384 18.8309 83.3384ZM66.6351 73.0094L75.6218 133.38H59.5503L58.7672 122.529H53.1366L52.2044 133.38H35.9464L43.9262 73.0094H66.6351ZM58.3197 111.827C57.5242 104.991 56.7287 96.5511 55.9333 86.5079C54.3423 98.0426 53.3479 106.482 52.9501 111.827H58.3197ZM78.3065 73.0094H89.4186C96.8267 73.0094 101.836 73.2953 104.446 73.867C107.081 74.4388 109.219 75.9055 110.86 78.2671C112.525 80.6039 113.358 84.3452 113.358 89.491C113.358 94.1894 112.774 97.3466 111.605 98.9624C110.437 100.578 108.138 101.548 104.707 101.871C107.814 102.642 109.903 103.673 110.972 104.966C112.041 106.259 112.699 107.452 112.948 108.546C113.221 109.615 113.358 112.585 113.358 117.458V133.38H98.7781V113.319C98.7781 110.087 98.5171 108.086 97.9951 107.315C97.4979 106.544 96.1679 106.159 94.0051 106.159V133.38H78.3065V73.0094ZM94.0051 83.3384V96.7624C95.7702 96.7624 97.0007 96.5262 97.6967 96.0539C98.4177 95.5567 98.7781 93.9781 98.7781 91.3182V87.9995C98.7781 86.0853 98.4301 84.8299 97.734 84.2333C97.0628 83.6367 95.8199 83.3384 94.0051 83.3384ZM119.473 73.0094H131.219C138.801 73.0094 143.922 73.3574 146.582 74.0535C149.267 74.7495 151.306 75.8931 152.698 77.484C154.09 79.075 154.96 80.8525 155.308 82.8163C155.656 84.7554 155.83 88.5837 155.83 94.3013V115.444C155.83 120.863 155.569 124.493 155.047 126.332C154.55 128.147 153.667 129.577 152.399 130.621C151.132 131.64 149.566 132.361 147.701 132.783C145.837 133.181 143.028 133.38 139.274 133.38H119.473V73.0094ZM135.172 83.3384V123.051C137.434 123.051 138.826 122.604 139.348 121.709C139.87 120.789 140.131 118.315 140.131 114.288V90.8334C140.131 88.0989 140.044 86.3464 139.87 85.5757C139.696 84.8051 139.299 84.2458 138.677 83.8977C138.056 83.5248 136.887 83.3384 135.172 83.3384ZM197.556 108.359C197.556 114.425 197.407 118.725 197.109 121.261C196.835 123.772 195.94 126.071 194.424 128.16C192.932 130.248 190.906 131.851 188.346 132.97C185.785 134.088 182.802 134.648 179.397 134.648C176.165 134.648 173.256 134.126 170.671 133.082C168.11 132.013 166.047 130.422 164.481 128.309C162.915 126.196 161.983 123.896 161.684 121.41C161.386 118.924 161.237 114.574 161.237 108.359V98.0302C161.237 91.9645 161.374 87.6763 161.647 85.1655C161.945 82.6299 162.84 80.318 164.332 78.2298C165.848 76.1416 167.887 74.5382 170.447 73.4196C173.008 72.3009 175.991 71.7416 179.397 71.7416C182.628 71.7416 185.524 72.276 188.085 73.345C190.67 74.3891 192.746 75.9676 194.312 78.0807C195.878 80.1937 196.81 82.4932 197.109 84.9791C197.407 87.465 197.556 91.8154 197.556 98.0302V108.359ZM181.858 88.5215C181.858 85.7124 181.696 83.9226 181.373 83.1519C181.075 82.3565 180.441 81.9587 179.471 81.9587C178.651 81.9587 178.017 82.2819 177.569 82.9282C177.147 83.5497 176.936 85.4141 176.936 88.5215V116.712C176.936 120.217 177.072 122.38 177.346 123.2C177.644 124.021 178.315 124.431 179.359 124.431C180.428 124.431 181.112 123.958 181.41 123.014C181.708 122.069 181.858 119.819 181.858 116.264V88.5215Z" fill="white"/>
<path d="M21.2812 145.352V147.883H19.3281V158H16.0391V147.883H14.0938V145.352H21.2812ZM28.4141 153H24.3281V155.242C24.3281 155.711 24.362 156.013 24.4297 156.148C24.4974 156.284 24.6276 156.352 24.8203 156.352C25.0599 156.352 25.2188 156.263 25.2969 156.086C25.3802 155.904 25.4219 155.555 25.4219 155.039V153.672H28.4141V154.438C28.4141 155.078 28.3724 155.57 28.2891 155.914C28.2109 156.258 28.0234 156.625 27.7266 157.016C27.4297 157.406 27.0521 157.701 26.5938 157.898C26.1406 158.091 25.5703 158.188 24.8828 158.188C24.2161 158.188 23.6276 158.091 23.1172 157.898C22.6068 157.706 22.2083 157.443 21.9219 157.109C21.6406 156.771 21.4453 156.401 21.3359 156C21.2266 155.594 21.1719 155.005 21.1719 154.234V151.211C21.1719 150.305 21.2943 149.591 21.5391 149.07C21.7839 148.544 22.1849 148.143 22.7422 147.867C23.2995 147.586 23.9401 147.445 24.6641 147.445C25.5495 147.445 26.2786 147.615 26.8516 147.953C27.4297 148.286 27.8333 148.732 28.0625 149.289C28.2969 149.841 28.4141 150.62 28.4141 151.625V153ZM25.25 151.312V150.555C25.25 150.018 25.2214 149.672 25.1641 149.516C25.1068 149.359 24.9896 149.281 24.8125 149.281C24.5938 149.281 24.4583 149.349 24.4062 149.484C24.3542 149.615 24.3281 149.971 24.3281 150.555V151.312H25.25ZM36.4297 151.547H33.4531V150.352C33.4531 149.935 33.4193 149.654 33.3516 149.508C33.2839 149.357 33.1589 149.281 32.9766 149.281C32.7943 149.281 32.6719 149.346 32.6094 149.477C32.5469 149.607 32.5156 149.898 32.5156 150.352V155.242C32.5156 155.612 32.5625 155.891 32.6562 156.078C32.75 156.26 32.888 156.352 33.0703 156.352C33.2839 156.352 33.4271 156.255 33.5 156.062C33.5781 155.87 33.6172 155.505 33.6172 154.969V153.734H36.4297C36.4245 154.562 36.3932 155.185 36.3359 155.602C36.2839 156.013 36.1094 156.438 35.8125 156.875C35.5208 157.307 35.138 157.635 34.6641 157.859C34.1901 158.078 33.6042 158.188 32.9062 158.188C32.0156 158.188 31.3099 158.036 30.7891 157.734C30.2682 157.427 29.8984 157 29.6797 156.453C29.4661 155.901 29.3594 155.12 29.3594 154.109V151.164C29.3594 150.284 29.4479 149.62 29.625 149.172C29.8021 148.724 30.1797 148.326 30.7578 147.977C31.3359 147.622 32.0391 147.445 32.8672 147.445C33.6901 147.445 34.3932 147.62 34.9766 147.969C35.5599 148.318 35.9479 148.758 36.1406 149.289C36.3333 149.82 36.4297 150.573 36.4297 151.547ZM40.5859 147.633L40.5312 148.586C40.7604 148.206 41.0391 147.922 41.3672 147.734C41.7005 147.542 42.0833 147.445 42.5156 147.445C43.0573 147.445 43.5 147.573 43.8438 147.828C44.1875 148.083 44.4089 148.406 44.5078 148.797C44.6068 149.182 44.6562 149.828 44.6562 150.734V158H41.5V150.82C41.5 150.107 41.4766 149.672 41.4297 149.516C41.3828 149.359 41.2526 149.281 41.0391 149.281C40.8151 149.281 40.6745 149.372 40.6172 149.555C40.5599 149.732 40.5312 150.211 40.5312 150.992V158H37.375V147.633H40.5859ZM52.8906 151.273V153.812C52.8906 154.745 52.8438 155.43 52.75 155.867C52.6562 156.299 52.4557 156.706 52.1484 157.086C51.8411 157.461 51.4453 157.74 50.9609 157.922C50.4818 158.099 49.9297 158.188 49.3047 158.188C48.6068 158.188 48.0156 158.112 47.5312 157.961C47.0469 157.805 46.6693 157.573 46.3984 157.266C46.1328 156.953 45.9427 156.578 45.8281 156.141C45.7135 155.698 45.6562 155.036 45.6562 154.156V151.5C45.6562 150.536 45.7604 149.784 45.9688 149.242C46.1771 148.701 46.5521 148.266 47.0938 147.938C47.6354 147.609 48.3281 147.445 49.1719 147.445C49.8802 147.445 50.487 147.552 50.9922 147.766C51.5026 147.974 51.8958 148.247 52.1719 148.586C52.4479 148.924 52.6354 149.273 52.7344 149.633C52.8385 149.992 52.8906 150.539 52.8906 151.273ZM49.7344 150.492C49.7344 149.961 49.7057 149.628 49.6484 149.492C49.5911 149.352 49.4688 149.281 49.2812 149.281C49.0938 149.281 48.9688 149.352 48.9062 149.492C48.8438 149.628 48.8125 149.961 48.8125 150.492V155.172C48.8125 155.661 48.8438 155.982 48.9062 156.133C48.9688 156.279 49.0911 156.352 49.2734 156.352C49.4609 156.352 49.5833 156.284 49.6406 156.148C49.7031 156.013 49.7344 155.721 49.7344 155.273V150.492ZM57.1875 145.352V158H53.9375V145.352H57.1875ZM65.4688 151.273V153.812C65.4688 154.745 65.4219 155.43 65.3281 155.867C65.2344 156.299 65.0339 156.706 64.7266 157.086C64.4193 157.461 64.0234 157.74 63.5391 157.922C63.0599 158.099 62.5078 158.188 61.8828 158.188C61.1849 158.188 60.5938 158.112 60.1094 157.961C59.625 157.805 59.2474 157.573 58.9766 157.266C58.7109 156.953 58.5208 156.578 58.4062 156.141C58.2917 155.698 58.2344 155.036 58.2344 154.156V151.5C58.2344 150.536 58.3385 149.784 58.5469 149.242C58.7552 148.701 59.1302 148.266 59.6719 147.938C60.2135 147.609 60.9062 147.445 61.75 147.445C62.4583 147.445 63.0651 147.552 63.5703 147.766C64.0807 147.974 64.474 148.247 64.75 148.586C65.026 148.924 65.2135 149.273 65.3125 149.633C65.4167 149.992 65.4688 150.539 65.4688 151.273ZM62.3125 150.492C62.3125 149.961 62.2839 149.628 62.2266 149.492C62.1693 149.352 62.0469 149.281 61.8594 149.281C61.6719 149.281 61.5469 149.352 61.4844 149.492C61.4219 149.628 61.3906 149.961 61.3906 150.492V155.172C61.3906 155.661 61.4219 155.982 61.4844 156.133C61.5469 156.279 61.6693 156.352 61.8516 156.352C62.0391 156.352 62.1615 156.284 62.2188 156.148C62.2812 156.013 62.3125 155.721 62.3125 155.273V150.492ZM73.6875 147.633V155.617C73.6875 156.695 73.6615 157.393 73.6094 157.711C73.5625 158.023 73.388 158.354 73.0859 158.703C72.7839 159.057 72.362 159.326 71.8203 159.508C71.2839 159.695 70.6068 159.789 69.7891 159.789C68.7839 159.789 67.9766 159.617 67.3672 159.273C66.7578 158.935 66.4427 158.266 66.4219 157.266H69.4844C69.4844 157.724 69.651 157.953 69.9844 157.953C70.224 157.953 70.3828 157.883 70.4609 157.742C70.5391 157.602 70.5781 157.307 70.5781 156.859V156.078C70.3073 156.323 70.0208 156.508 69.7188 156.633C69.4219 156.758 69.1094 156.82 68.7812 156.82C68.2135 156.82 67.7448 156.706 67.375 156.477C67.0104 156.247 66.7604 155.948 66.625 155.578C66.4896 155.203 66.4219 154.672 66.4219 153.984V150.219C66.4219 149.234 66.599 148.526 66.9531 148.094C67.3073 147.661 67.8464 147.445 68.5703 147.445C68.9661 147.445 69.3255 147.526 69.6484 147.688C69.9766 147.849 70.2682 148.091 70.5234 148.414L70.75 147.633H73.6875ZM70.5234 150.383C70.5234 149.909 70.4948 149.607 70.4375 149.477C70.3854 149.346 70.2656 149.281 70.0781 149.281C69.8958 149.281 69.7656 149.357 69.6875 149.508C69.6146 149.654 69.5781 149.945 69.5781 150.383V153.867C69.5781 154.331 69.6068 154.633 69.6641 154.773C69.7214 154.909 69.8411 154.977 70.0234 154.977C70.2318 154.977 70.3672 154.893 70.4297 154.727C70.4922 154.56 70.5234 154.182 70.5234 153.594V150.383ZM78.0625 147.633V158H74.8125V147.633H78.0625ZM79.1328 144.82L76.5625 146.938H74.9766L76.3516 144.82H79.1328ZM82.0234 151.648H79.0625V150.953C79.0625 150.151 79.1536 149.534 79.3359 149.102C79.5234 148.664 79.8958 148.279 80.4531 147.945C81.0104 147.612 81.7344 147.445 82.625 147.445C83.6927 147.445 84.4974 147.635 85.0391 148.016C85.5807 148.391 85.9062 148.854 86.0156 149.406C86.125 149.953 86.1797 151.083 86.1797 152.797V158H83.1094V157.078C82.9167 157.448 82.6667 157.727 82.3594 157.914C82.0573 158.096 81.6953 158.188 81.2734 158.188C80.7214 158.188 80.2135 158.034 79.75 157.727C79.2917 157.414 79.0625 156.734 79.0625 155.688V154.836C79.0625 154.06 79.1849 153.531 79.4297 153.25C79.6745 152.969 80.2812 152.641 81.25 152.266C82.2865 151.859 82.8411 151.586 82.9141 151.445C82.987 151.305 83.0234 151.018 83.0234 150.586C83.0234 150.044 82.9818 149.693 82.8984 149.531C82.8203 149.365 82.6875 149.281 82.5 149.281C82.2865 149.281 82.1536 149.352 82.1016 149.492C82.0495 149.628 82.0234 149.984 82.0234 150.562V151.648ZM83.0234 153.07C82.5182 153.44 82.224 153.75 82.1406 154C82.0625 154.25 82.0234 154.609 82.0234 155.078C82.0234 155.615 82.0573 155.961 82.125 156.117C82.1979 156.273 82.3385 156.352 82.5469 156.352C82.7448 156.352 82.8724 156.292 82.9297 156.172C82.9922 156.047 83.0234 155.724 83.0234 155.203V153.07ZM96.7031 147.633L95.7969 155.133C95.6562 156.32 95.5365 157.13 95.4375 157.562C95.3438 157.995 95.1849 158.352 94.9609 158.633C94.737 158.914 94.4245 159.12 94.0234 159.25C93.6276 159.385 92.9922 159.453 92.1172 159.453H90.2031V157.797C90.6927 157.797 91.0078 157.773 91.1484 157.727C91.2891 157.674 91.3594 157.562 91.3594 157.391C91.3594 157.307 91.2943 156.945 91.1641 156.305L89.4375 147.633H92.3047L93.3359 154.625L93.8359 147.633H96.7031ZM107.156 149.18H104.102V148.242C104.102 147.805 104.062 147.526 103.984 147.406C103.906 147.286 103.776 147.227 103.594 147.227C103.396 147.227 103.245 147.307 103.141 147.469C103.042 147.63 102.992 147.875 102.992 148.203C102.992 148.625 103.049 148.943 103.164 149.156C103.273 149.37 103.583 149.628 104.094 149.93C105.557 150.799 106.479 151.513 106.859 152.07C107.24 152.628 107.43 153.526 107.43 154.766C107.43 155.667 107.323 156.331 107.109 156.758C106.901 157.185 106.495 157.544 105.891 157.836C105.286 158.122 104.583 158.266 103.781 158.266C102.901 158.266 102.148 158.099 101.523 157.766C100.904 157.432 100.497 157.008 100.305 156.492C100.112 155.977 100.016 155.245 100.016 154.297V153.469H103.07V155.008C103.07 155.482 103.112 155.786 103.195 155.922C103.284 156.057 103.438 156.125 103.656 156.125C103.875 156.125 104.036 156.039 104.141 155.867C104.25 155.695 104.305 155.44 104.305 155.102C104.305 154.357 104.203 153.87 104 153.641C103.792 153.411 103.279 153.029 102.461 152.492C101.643 151.951 101.102 151.557 100.836 151.312C100.57 151.068 100.349 150.729 100.172 150.297C100 149.865 99.9141 149.312 99.9141 148.641C99.9141 147.672 100.036 146.964 100.281 146.516C100.531 146.068 100.932 145.719 101.484 145.469C102.036 145.214 102.703 145.086 103.484 145.086C104.339 145.086 105.065 145.224 105.664 145.5C106.268 145.776 106.667 146.125 106.859 146.547C107.057 146.964 107.156 147.674 107.156 148.68V149.18ZM115.516 151.273V153.812C115.516 154.745 115.469 155.43 115.375 155.867C115.281 156.299 115.081 156.706 114.773 157.086C114.466 157.461 114.07 157.74 113.586 157.922C113.107 158.099 112.555 158.188 111.93 158.188C111.232 158.188 110.641 158.112 110.156 157.961C109.672 157.805 109.294 157.573 109.023 157.266C108.758 156.953 108.568 156.578 108.453 156.141C108.339 155.698 108.281 155.036 108.281 154.156V151.5C108.281 150.536 108.385 149.784 108.594 149.242C108.802 148.701 109.177 148.266 109.719 147.938C110.26 147.609 110.953 147.445 111.797 147.445C112.505 147.445 113.112 147.552 113.617 147.766C114.128 147.974 114.521 148.247 114.797 148.586C115.073 148.924 115.26 149.273 115.359 149.633C115.464 149.992 115.516 150.539 115.516 151.273ZM112.359 150.492C112.359 149.961 112.331 149.628 112.273 149.492C112.216 149.352 112.094 149.281 111.906 149.281C111.719 149.281 111.594 149.352 111.531 149.492C111.469 149.628 111.438 149.961 111.438 150.492V155.172C111.438 155.661 111.469 155.982 111.531 156.133C111.594 156.279 111.716 156.352 111.898 156.352C112.086 156.352 112.208 156.284 112.266 156.148C112.328 156.013 112.359 155.721 112.359 155.273V150.492ZM119.812 145.352V158H116.562V145.352H119.812ZM128.18 147.633V158H124.969L125.023 157.141C124.805 157.49 124.534 157.753 124.211 157.93C123.893 158.102 123.526 158.188 123.109 158.188C122.635 158.188 122.242 158.104 121.93 157.938C121.617 157.771 121.385 157.549 121.234 157.273C121.089 156.997 120.997 156.711 120.961 156.414C120.924 156.112 120.906 155.516 120.906 154.625V147.633H124.062V154.688C124.062 155.495 124.086 155.974 124.133 156.125C124.185 156.276 124.32 156.352 124.539 156.352C124.773 156.352 124.911 156.273 124.953 156.117C125 155.961 125.023 155.458 125.023 154.609V147.633H128.18ZM136.289 151.547H133.312V150.352C133.312 149.935 133.279 149.654 133.211 149.508C133.143 149.357 133.018 149.281 132.836 149.281C132.654 149.281 132.531 149.346 132.469 149.477C132.406 149.607 132.375 149.898 132.375 150.352V155.242C132.375 155.612 132.422 155.891 132.516 156.078C132.609 156.26 132.747 156.352 132.93 156.352C133.143 156.352 133.286 156.255 133.359 156.062C133.438 155.87 133.477 155.505 133.477 154.969V153.734H136.289C136.284 154.562 136.253 155.185 136.195 155.602C136.143 156.013 135.969 156.438 135.672 156.875C135.38 157.307 134.997 157.635 134.523 157.859C134.049 158.078 133.464 158.188 132.766 158.188C131.875 158.188 131.169 158.036 130.648 157.734C130.128 157.427 129.758 157 129.539 156.453C129.326 155.901 129.219 155.12 129.219 154.109V151.164C129.219 150.284 129.307 149.62 129.484 149.172C129.661 148.724 130.039 148.326 130.617 147.977C131.195 147.622 131.898 147.445 132.727 147.445C133.549 147.445 134.253 147.62 134.836 147.969C135.419 148.318 135.807 148.758 136 149.289C136.193 149.82 136.289 150.573 136.289 151.547ZM140.484 145.352V147H137.234V145.352H140.484ZM140.484 147.633V158H137.234V147.633H140.484ZM148.766 151.273V153.812C148.766 154.745 148.719 155.43 148.625 155.867C148.531 156.299 148.331 156.706 148.023 157.086C147.716 157.461 147.32 157.74 146.836 157.922C146.357 158.099 145.805 158.188 145.18 158.188C144.482 158.188 143.891 158.112 143.406 157.961C142.922 157.805 142.544 157.573 142.273 157.266C142.008 156.953 141.818 156.578 141.703 156.141C141.589 155.698 141.531 155.036 141.531 154.156V151.5C141.531 150.536 141.635 149.784 141.844 149.242C142.052 148.701 142.427 148.266 142.969 147.938C143.51 147.609 144.203 147.445 145.047 147.445C145.755 147.445 146.362 147.552 146.867 147.766C147.378 147.974 147.771 148.247 148.047 148.586C148.323 148.924 148.51 149.273 148.609 149.633C148.714 149.992 148.766 150.539 148.766 151.273ZM145.609 150.492C145.609 149.961 145.581 149.628 145.523 149.492C145.466 149.352 145.344 149.281 145.156 149.281C144.969 149.281 144.844 149.352 144.781 149.492C144.719 149.628 144.688 149.961 144.688 150.492V155.172C144.688 155.661 144.719 155.982 144.781 156.133C144.844 156.279 144.966 156.352 145.148 156.352C145.336 156.352 145.458 156.284 145.516 156.148C145.578 156.013 145.609 155.721 145.609 155.273V150.492ZM153.023 147.633L152.969 148.586C153.198 148.206 153.477 147.922 153.805 147.734C154.138 147.542 154.521 147.445 154.953 147.445C155.495 147.445 155.938 147.573 156.281 147.828C156.625 148.083 156.846 148.406 156.945 148.797C157.044 149.182 157.094 149.828 157.094 150.734V158H153.938V150.82C153.938 150.107 153.914 149.672 153.867 149.516C153.82 149.359 153.69 149.281 153.477 149.281C153.253 149.281 153.112 149.372 153.055 149.555C152.997 149.732 152.969 150.211 152.969 150.992V158H149.812V147.633H153.023ZM165.336 153H161.25V155.242C161.25 155.711 161.284 156.013 161.352 156.148C161.419 156.284 161.549 156.352 161.742 156.352C161.982 156.352 162.141 156.263 162.219 156.086C162.302 155.904 162.344 155.555 162.344 155.039V153.672H165.336V154.438C165.336 155.078 165.294 155.57 165.211 155.914C165.133 156.258 164.945 156.625 164.648 157.016C164.352 157.406 163.974 157.701 163.516 157.898C163.062 158.091 162.492 158.188 161.805 158.188C161.138 158.188 160.549 158.091 160.039 157.898C159.529 157.706 159.13 157.443 158.844 157.109C158.562 156.771 158.367 156.401 158.258 156C158.148 155.594 158.094 155.005 158.094 154.234V151.211C158.094 150.305 158.216 149.591 158.461 149.07C158.706 148.544 159.107 148.143 159.664 147.867C160.221 147.586 160.862 147.445 161.586 147.445C162.471 147.445 163.201 147.615 163.773 147.953C164.352 148.286 164.755 148.732 164.984 149.289C165.219 149.841 165.336 150.62 165.336 151.625V153ZM162.172 151.312V150.555C162.172 150.018 162.143 149.672 162.086 149.516C162.029 149.359 161.911 149.281 161.734 149.281C161.516 149.281 161.38 149.349 161.328 149.484C161.276 149.615 161.25 149.971 161.25 150.555V151.312H162.172ZM172.82 150.945H170.023V150.383C170.023 149.904 169.995 149.602 169.938 149.477C169.885 149.346 169.75 149.281 169.531 149.281C169.354 149.281 169.221 149.341 169.133 149.461C169.044 149.576 169 149.75 169 149.984C169 150.302 169.021 150.536 169.062 150.688C169.109 150.833 169.242 150.995 169.461 151.172C169.685 151.349 170.141 151.607 170.828 151.945C171.745 152.393 172.346 152.815 172.633 153.211C172.919 153.607 173.062 154.182 173.062 154.938C173.062 155.781 172.953 156.419 172.734 156.852C172.516 157.279 172.148 157.609 171.633 157.844C171.122 158.073 170.505 158.188 169.781 158.188C168.979 158.188 168.292 158.062 167.719 157.812C167.151 157.562 166.76 157.224 166.547 156.797C166.333 156.37 166.227 155.724 166.227 154.859V154.359H169.023V155.016C169.023 155.573 169.057 155.935 169.125 156.102C169.198 156.268 169.339 156.352 169.547 156.352C169.771 156.352 169.927 156.297 170.016 156.188C170.104 156.073 170.148 155.836 170.148 155.477C170.148 154.982 170.091 154.672 169.977 154.547C169.857 154.422 169.245 154.052 168.141 153.438C167.214 152.917 166.648 152.445 166.445 152.023C166.242 151.596 166.141 151.091 166.141 150.508C166.141 149.68 166.25 149.07 166.469 148.68C166.688 148.284 167.057 147.979 167.578 147.766C168.104 147.552 168.714 147.445 169.406 147.445C170.094 147.445 170.677 147.534 171.156 147.711C171.641 147.883 172.01 148.112 172.266 148.398C172.526 148.685 172.682 148.951 172.734 149.195C172.792 149.44 172.82 149.823 172.82 150.344V150.945Z" fill="#F5F5F5"/>
<path d="M26.26 151.29H6.26001V153.29H26.26V151.29Z" fill="#F5F5F5"/>
<path d="M181.26 152.29H161.26V154.29H181.26V152.29Z" fill="#F5F5F5"/>
</g>
<defs>
<clipPath id="clip0_1_9">
<rect width="368.71" height="223.22" fill="white"/>
</clipPath>
</defs>
</svg>
